<?xml version="1.0" standalone="no"?><!DOCTYPE svg PUBLIC "-//W3C//DTD SVG 1.1//EN" "http://www.w3.org/Graphics/SVG/1.1/DTD/svg11.dtd"><svg t="1774363337934" class="icon" viewBox="0 0 1066 1024" version="1.1" xmlns="http://www.w3.org/2000/svg" p-id="4748" xmlns:xlink="http://www.w3.org/1999/xlink" width="208.203125" height="200"><path d="M880 384a111.36 111.36 0 0 0-42.026667 8.021333L715.946667 239.744a111.957333 111.957333 0 1 0-203.946667-63.744c-0.042667 3.925333 0.170667 7.850667 0.554667 11.776L326.741333 265.216a112 112 0 1 0-114.432 179.285333l7.424 185.557334a112 112 0 1 0 130.986667 165.674666l193.28 54.186667a111.957333 111.957333 0 1 0 196.522667-75.221333l108.8-170.965334a112 112 0 1 0 30.72-219.733333z m-224 352h-3.541333l-64.725334-194.133333 186.581334-8.874667c4.693333 13.226667 11.904 25.429333 21.12 36.010667l-108.8 171.008a111.957333 111.957333 0 0 0-30.634667-4.010667zM283.733333 627.498667l-7.424-185.557334c15.104-5.162667 28.885333-13.525333 40.533334-24.490666l170.069333 98.56-165.845333 128.853333a111.914667 111.914667 0 0 0-37.333334-17.365333z m346.581334-339.498667c12.288-0.682667 24.362667-3.413333 35.754666-7.978667l121.984 152.234667a111.530667 111.530667 0 0 0-16.725333 36.864l-186.282667 8.874667 45.269334-189.994667z m-269.909334 407.381333l167.68-130.346666 63.701334 191.317333c-12.117333 8.533333-22.442667 19.456-30.378667 32l-193.365333-54.229333a112.042667 112.042667 0 0 0-7.637334-38.741334zM624.042667 128a48 48 0 1 1 0 96 48 48 0 0 1 0-96z m-86.741334 118.784c8.576 10.496 18.986667 19.370667 30.72 26.197333l-45.226666 189.781334-173.866667-100.693334a112 112 0 0 0 2.474667-37.845333l185.898666-77.44zM192 336a48 48 0 1 1 96 0 48 48 0 0 1-96 0z m64 448a48 48 0 1 1 0-96 48 48 0 0 1 0 96zM656 896a48 48 0 1 1 0-96 48 48 0 0 1 0 96z m224-352a48 48 0 1 1 0-96 48 48 0 0 1 0 96z" p-id="4749"></path></svg>