<?xml version="1.0" standalone="no"?>
<!DOCTYPE svg PUBLIC "-//W3C//DTD SVG 20010904//EN"
 "http://www.w3.org/TR/2001/REC-SVG-20010904/DTD/svg10.dtd">
<svg version="1.0" xmlns="http://www.w3.org/2000/svg"
 width="958.524915pt" height="180.820847pt" viewBox="0 0 958.524915 180.820847"
 preserveAspectRatio="xMidYMid meet">
<metadata>
Created by potrace 1.12, written by Peter Selinger 2001-2015
</metadata>
<g transform="translate(-49.931441,211.986801) scale(0.100000,-0.100000)"
fill="#000000" stroke="none">
<path d="M3986 2088 c-65 -53 -116 -125 -116 -164 0 -30 3 -34 25 -34 30 0 30
-1 6 -48 -22 -42 -50 -70 -101 -101 -43 -26 -49 -26 -43 -1 8 30 -42 39 -71
11 -12 -11 -30 -21 -39 -21 -13 0 -9 10 18 46 39 51 44 77 16 100 -15 13 -17
21 -8 43 13 36 2 78 -23 86 -10 3 -32 -1 -47 -9 -29 -15 -139 -125 -187 -186
-15 -19 -59 -67 -98 -107 -69 -70 -71 -73 -61 -105 6 -22 15 -33 26 -32 22 2
21 -4 -3 -41 -41 -63 -12 -107 56 -85 32 11 37 10 50 -9 17 -24 77 -29 91 -8
5 7 10 -5 13 -33 7 -62 34 -65 93 -11 48 44 62 49 71 26 3 -10 -1 -15 -13 -15
-9 0 -46 -25 -82 -56 -61 -53 -64 -54 -69 -32 -6 25 -48 45 -73 35 -22 -8 -94
-107 -102 -138 -4 -18 -1 -31 10 -43 16 -16 16 -20 0 -62 -15 -40 -16 -48 -3
-60 11 -12 24 -13 56 -5 23 5 42 7 42 5 0 -3 -9 -22 -20 -44 -11 -22 -20 -52
-20 -68 0 -16 -18 -64 -40 -107 -45 -87 -47 -100 -23 -127 15 -17 15 -26 5
-77 -19 -90 -16 -103 29 -144 l40 -37 31 17 c17 10 37 28 45 41 18 25 33 29
33 7 0 -8 9 -24 21 -36 24 -24 55 -20 100 12 26 19 27 19 32 -1 12 -47 65 -38
135 25 27 25 52 45 55 45 3 0 7 -12 9 -26 5 -41 30 -52 72 -31 l35 16 -9 -25
c-6 -14 -10 -31 -10 -39 0 -21 29 -45 53 -45 18 0 22 -6 22 -32 0 -23 5 -34
18 -36 21 -4 133 74 171 118 26 32 35 83 16 95 -33 20 34 111 147 201 93 73
122 109 130 158 7 46 -11 54 -117 54 -71 0 -92 -4 -127 -24 -47 -27 -73 -31
-73 -10 0 23 60 64 135 91 112 40 157 104 100 141 -21 14 -34 15 -78 6 -79
-16 -77 -4 11 58 31 22 74 54 95 70 25 19 64 35 111 45 86 19 133 45 147 82
14 38 2 82 -27 93 -14 6 -23 17 -22 27 3 44 -2 53 -33 53 -17 0 -40 -5 -52
-11 -18 -9 -20 -9 -9 2 6 7 12 23 12 35 0 13 5 26 10 29 16 10 12 42 -6 49
-10 4 -25 -1 -35 -10 -11 -10 -19 -13 -19 -7 0 5 9 18 21 29 28 25 47 65 41
84 -2 8 -14 22 -25 31 l-21 17 27 32 c36 43 35 78 -5 123 -18 20 -42 48 -54
63 -29 38 -53 27 -119 -55 -54 -67 -65 -94 -45 -106 15 -9 12 -35 -11 -85
l-20 -44 -35 38 c-35 39 -45 40 -100 19 -14 -5 -16 -3 -11 10 4 9 10 24 13 32
4 10 0 15 -14 15 -40 0 -39 14 9 112 15 30 10 47 -21 70 -16 12 -30 28 -30 35
0 7 -9 17 -19 23 -36 18 -75 11 -115 -22z m349 -476 c0 -42 4 -56 19 -64 17
-9 16 -12 -10 -29 -20 -13 -39 -17 -64 -13 -26 4 -52 -2 -102 -25 -79 -36 -98
-38 -98 -12 0 47 -54 31 -122 -37 -42 -41 -48 -44 -48 -24 0 12 6 22 14 22 8
0 36 18 61 40 25 22 51 40 56 40 6 0 33 23 60 52 44 46 52 51 69 40 11 -7 33
-12 50 -12 24 0 36 8 58 40 38 55 57 49 57 -18z m-475 -147 c7 -8 8 -15 2 -15
-5 0 -38 -19 -73 -43 -90 -61 -98 -65 -64 -30 17 18 43 48 58 67 31 38 57 45
77 21z m-70 -393 c0 -5 -9 -17 -20 -27 -23 -21 -26 -43 -6 -51 11 -4 13 -18 9
-59 -5 -49 -4 -54 21 -70 14 -10 35 -15 47 -12 l21 6 -21 -23 c-12 -12 -38
-32 -59 -44 -35 -19 -41 -20 -66 -7 -24 13 -31 13 -59 -1 -18 -9 -52 -35 -76
-58 l-43 -41 16 33 c10 18 26 42 37 53 20 20 20 20 0 54 l-19 33 31 77 c22 56
37 79 54 86 13 5 40 20 61 34 36 25 72 33 72 17z"/>
<path d="M9420 2003 c-46 -8 -135 -74 -158 -116 -20 -37 -21 -42 -7 -64 18
-27 28 -29 45 -8 7 8 16 13 20 10 14 -9 72 -117 90 -170 10 -27 47 -111 82
-185 36 -74 78 -175 94 -225 16 -49 66 -166 112 -258 45 -93 82 -177 82 -187
0 -10 5 -22 10 -25 6 -3 50 -86 100 -183 121 -239 148 -284 167 -280 38 7 37
32 -6 148 -23 62 -43 122 -45 134 -1 12 -7 39 -13 61 -6 22 -11 65 -11 95 0
80 -7 119 -43 228 -17 53 -35 120 -39 147 -10 60 -53 218 -81 295 -11 30 -26
82 -34 115 -7 33 -24 92 -38 130 -13 39 -39 110 -56 159 -42 119 -70 168 -93
163 -9 -3 -22 1 -29 9 -11 14 -90 17 -149 7z"/>
<path d="M2182 1664 c-23 -19 -42 -41 -42 -48 0 -6 -9 -19 -20 -29 -25 -21
-26 -43 -3 -56 17 -9 16 -14 -10 -65 -29 -60 -33 -86 -17 -102 7 -7 4 -26 -10
-60 -17 -38 -19 -53 -10 -72 8 -19 7 -30 -10 -57 -24 -39 -26 -71 -5 -79 12
-4 14 -10 5 -25 -5 -11 -10 -33 -10 -50 0 -25 4 -31 21 -31 21 0 21 0 -2 -39
-41 -68 -208 -191 -259 -191 -17 0 -44 -7 -60 -15 -28 -15 -30 -14 -30 4 0 31
-32 30 -80 -4 -32 -23 -45 -39 -45 -56 0 -37 47 -39 81 -2 l26 28 -18 -38 -18
-38 30 -57 c20 -39 37 -58 51 -60 12 -2 20 -9 17 -15 -2 -7 2 -21 10 -32 12
-17 17 -18 42 -6 15 7 45 26 67 43 35 28 40 30 49 15 12 -22 56 -22 80 0 17
15 18 15 18 -5 0 -39 41 -27 91 28 50 55 69 63 62 27 -3 -14 2 -29 11 -36 17
-14 24 -11 95 46 30 24 34 25 27 8 -28 -71 14 -66 101 10 37 33 130 122 206
197 121 119 138 140 135 165 -2 22 -8 28 -28 28 -14 1 -38 4 -53 9 -19 6 -38
4 -55 -4 -62 -29 -93 -40 -89 -33 3 5 2 15 -2 22 -11 17 -71 -1 -96 -29 -10
-11 -23 -20 -29 -20 -6 0 -5 5 2 12 18 18 14 38 -8 38 -11 0 -53 -18 -92 -40
-60 -34 -74 -39 -85 -27 -11 11 -11 20 1 54 8 23 23 54 32 69 17 26 17 27 -3
43 -20 17 -20 18 -3 52 10 19 27 42 39 53 20 18 21 18 31 -9 9 -24 14 -27 43
-21 17 3 51 19 74 35 38 27 41 28 46 10 9 -35 47 -20 143 57 96 76 128 118
122 157 -3 19 -9 22 -48 22 -25 0 -51 4 -58 8 -7 5 -18 5 -25 -1 -7 -5 -33
-16 -59 -25 -37 -12 -54 -13 -76 -5 -26 10 -34 8 -73 -23 -24 -18 -62 -49 -83
-69 -30 -26 -35 -29 -23 -10 23 33 21 61 -3 67 -25 7 -25 7 5 51 29 42 32 77
9 90 -15 8 -15 12 1 41 15 31 15 34 -1 52 -9 10 -23 19 -29 19 -7 0 -15 14
-18 30 -9 41 -33 39 -85 -6z"/>
<path d="M8144 1666 c-48 -22 -66 -45 -57 -73 3 -7 13 -13 24 -13 15 0 18 -5
15 -22 -3 -13 -13 -58 -22 -100 -12 -59 -26 -91 -56 -134 -32 -44 -39 -60 -31
-73 6 -9 20 -16 31 -15 18 0 20 -8 25 -95 6 -125 32 -195 93 -251 68 -62 98
-72 194 -61 103 11 145 36 250 148 93 100 138 183 171 314 27 104 22 178 -17
272 -32 77 -59 100 -142 117 -61 14 -130 2 -208 -34 -49 -23 -52 -23 -70 -7
-18 17 -113 52 -138 50 -6 0 -34 -11 -62 -23z m390 -160 c48 -20 61 -64 40
-135 -15 -51 -33 -76 -141 -191 l-43 -45 0 62 c0 43 10 93 30 155 19 60 26 96
20 102 -11 11 -13 49 -3 59 11 12 62 8 97 -7z"/>
<path d="M6015 1631 c-46 -11 -101 -51 -121 -88 -16 -31 -16 -35 -1 -50 13
-13 19 -14 31 -4 19 16 34 -6 80 -115 19 -44 51 -117 73 -164 22 -47 48 -110
58 -140 9 -30 45 -116 80 -190 34 -74 68 -146 74 -160 26 -61 174 -336 188
-353 15 -16 18 -16 32 -3 13 14 12 23 -13 82 -33 81 -45 132 -56 244 -5 47
-23 130 -39 185 -16 55 -37 134 -47 175 -9 41 -26 100 -36 130 -11 30 -23 73
-28 95 -4 22 -17 65 -28 95 -11 30 -31 87 -45 126 -35 100 -43 112 -84 129
-38 16 -69 17 -118 6z"/>
<path d="M8924 1579 c-18 -20 -18 -21 1 -35 10 -8 24 -14 31 -14 23 0 23 -32
0 -88 -13 -31 -27 -68 -31 -82 -4 -14 -25 -45 -45 -70 -21 -25 -47 -65 -59
-90 -12 -25 -32 -61 -46 -80 -67 -96 -81 -118 -98 -153 -16 -30 -17 -40 -7
-52 19 -23 43 -18 75 15 16 17 36 30 46 30 9 0 22 7 29 15 7 8 20 15 29 15 37
0 109 32 136 60 16 17 35 30 43 30 20 0 202 174 202 192 0 5 11 26 24 47 26
40 28 63 8 83 -7 7 -12 17 -12 24 0 20 -143 122 -208 149 -75 30 -93 31 -118
4z"/>
<path d="M913 1368 c-18 -11 -33 -15 -33 -9 0 6 -7 11 -15 11 -8 0 -15 -4 -15
-10 0 -5 5 -10 10 -10 20 0 9 -27 -23 -58 -23 -22 -43 -32 -64 -32 -18 0 -35
-4 -38 -10 -10 -17 -25 -11 -25 10 0 25 -28 27 -45 3 -9 -12 -25 -17 -52 -16
-31 1 -48 -5 -76 -28 -35 -29 -50 -69 -26 -69 7 0 9 -10 5 -25 -7 -29 -3 -30
93 -14 50 8 66 7 72 -3 6 -10 15 -10 41 -1 30 11 31 11 14 -2 -11 -8 -31 -15
-44 -15 -32 0 -62 -17 -62 -36 0 -8 -8 -18 -17 -21 -19 -7 -93 -76 -93 -87 0
-3 6 -6 14 -6 11 0 9 -9 -7 -40 -16 -29 -19 -42 -11 -48 7 -4 13 -16 15 -27 6
-27 36 -31 61 -8 15 13 22 15 25 6 7 -20 26 -15 52 12 30 32 48 32 27 0 -20
-31 -20 -45 -1 -45 9 0 18 -7 21 -15 7 -18 45 -20 62 -3 6 6 29 12 51 12 l39
1 -18 -25 c-10 -14 -31 -36 -46 -50 -20 -17 -23 -18 -11 -4 37 44 6 47 -55 5
-24 -16 -44 -25 -46 -20 -10 26 -98 -20 -122 -65 -12 -24 -12 -28 0 -36 8 -5
15 -17 15 -27 0 -20 2 -20 148 -10 61 3 77 2 77 -9 0 -8 9 -14 20 -14 17 0 19
-5 14 -25 -5 -19 -2 -25 9 -25 9 0 20 -8 26 -17 9 -17 11 -17 43 1 48 28 65
44 83 82 9 19 21 34 27 34 6 0 36 23 67 51 31 28 68 62 84 75 29 27 36 64 12
64 -8 0 -15 9 -15 20 0 15 -7 20 -25 20 -14 0 -25 5 -25 10 0 21 -43 9 -70
-20 -27 -29 -53 -43 -32 -17 5 6 13 22 16 35 6 16 3 22 -8 22 -20 0 -20 9 -1
34 19 26 19 56 0 56 -8 0 -15 5 -15 11 0 8 -14 10 -39 6 -32 -4 -39 -2 -34 10
3 8 1 18 -4 22 -5 3 -8 23 -5 44 3 28 9 37 23 37 15 0 17 -5 12 -32 -6 -31 -6
-31 25 -25 24 5 32 3 32 -8 0 -8 9 -15 20 -15 11 0 20 -4 20 -10 0 -17 41 -11
68 11 23 18 27 19 30 5 6 -27 48 -18 86 18 41 38 45 52 16 61 -11 3 -20 13
-20 21 0 8 -9 14 -21 14 -18 0 -20 4 -14 30 8 35 -10 40 -50 14 -23 -15 -25
-15 -25 0 0 19 -23 21 -53 4 -12 -6 -35 -11 -50 -10 -15 1 -35 -4 -43 -13 -9
-8 -20 -15 -25 -15 -17 0 4 28 41 55 29 21 36 23 38 10 4 -19 26 -19 57 1 15
10 25 12 25 5 0 -32 58 0 131 72 43 42 50 67 19 67 -11 0 -20 5 -20 11 0 8
-12 10 -35 6 -19 -3 -37 -1 -40 4 -4 5 -19 9 -36 9 -16 0 -29 5 -29 10 0 19
-38 10 -69 -15 -40 -35 -81 -26 -81 16 0 34 -12 35 -57 7z m-100 -295 c3 -17
0 -34 -9 -44 -18 -20 -18 -47 0 -65 8 -7 12 -23 9 -33 -7 -29 -69 -63 -99 -55
-14 4 -24 2 -24 -5 0 -6 -9 -11 -20 -11 -11 0 -20 -4 -20 -10 0 -5 -5 -10 -11
-10 -7 0 -4 11 7 28 24 37 96 125 110 134 7 4 15 25 19 45 11 61 29 73 38 26z"/>
<path d="M5043 1371 c-36 -23 -42 -45 -17 -59 16 -9 16 -15 1 -80 -10 -44 -28
-87 -47 -113 -23 -32 -27 -45 -19 -55 6 -8 17 -14 23 -14 6 0 12 -23 13 -57 6
-121 57 -212 135 -242 35 -13 123 -3 168 19 40 21 131 110 170 168 39 59 75
176 75 247 -1 84 -41 170 -89 190 -49 21 -116 19 -180 -6 -51 -19 -57 -19 -79
-4 -41 27 -117 30 -154 6z m296 -112 c71 -25 61 -105 -25 -202 -31 -34 -60
-63 -65 -65 -16 -6 -9 88 11 146 12 34 18 68 14 84 -10 48 7 57 65 37z"/>
<path d="M5639 1314 c-11 -14 -11 -18 6 -30 10 -8 23 -14 28 -14 21 0 -24
-122 -62 -170 -15 -19 -36 -51 -46 -70 -10 -19 -26 -46 -35 -60 -27 -39 -53
-80 -73 -113 -17 -27 -17 -31 -2 -46 11 -11 19 -13 29 -6 54 41 96 63 129 69
20 4 53 20 71 36 19 17 37 30 41 30 17 0 121 106 147 149 39 65 36 87 -17 138
-77 74 -189 119 -216 87z"/>
<path d="M7393 1163 c-24 -5 -73 -46 -73 -63 0 -5 9 -10 20 -10 16 0 31 -22
69 -104 27 -57 54 -121 61 -143 22 -68 201 -424 216 -430 25 -9 26 2 5 56 -11
28 -27 92 -35 143 -9 51 -29 143 -46 203 -17 61 -35 126 -40 145 -19 74 -62
176 -82 193 -19 16 -47 19 -95 10z"/>
<path d="M6818 1014 c-20 -6 -25 -24 -7 -24 16 0 3 -65 -23 -115 -13 -25 -16
-41 -9 -43 6 -2 11 -15 11 -28 0 -51 23 -115 48 -134 34 -27 113 -27 157 0 97
60 155 223 110 310 -18 35 -49 45 -113 36 -52 -8 -60 -8 -117 -2 -22 3 -48 2
-57 0z m176 -60 c47 -18 36 -83 -24 -139 l-32 -30 6 40 c3 22 9 61 12 88 7 48
10 52 38 41z"/>
<path d="M7180 971 c0 -5 6 -11 13 -14 14 -4 -4 -64 -33 -107 -39 -57 -100
-157 -100 -163 0 -13 37 -7 50 7 6 8 28 20 48 27 61 20 134 80 168 138 18 30
18 31 -7 57 -42 45 -139 84 -139 55z"/>
</g>
</svg>
