<svg width="270" height="63" xmlns="http://www.w3.org/2000/svg" xmlns:xlink="http://www.w3.org/1999/xlink" xml:space="preserve" overflow="hidden"><g transform="translate(-869 -100)"><path d="M1102.16 141.901 1102.16 153.193 1116.84 153.193 1116.84 141.901ZM1102.16 125.259 1102.16 135.363 1116.84 135.363 1116.84 125.259ZM943.23 119.019 948.492 123.179 945.168 162.703 940.183 158.542ZM1095.51 118.721 1123.49 118.721 1123.49 159.731 1095.51 159.731ZM983.945 114.561 990.593 115.155 990.039 122.288 1001.39 122.288 1000.84 162.703 990.593 162.703 990.593 155.868 993.916 155.868 994.47 128.825 989.208 128.825 983.669 162.703 977.021 162.406 982.284 128.825 977.298 128.825 977.298 122.288 983.391 122.288ZM1079.73 114.264 1086.65 114.264 1086.65 162.703 1079.73 162.703ZM1100.5 102.972 1139 102.972 1139 162.703 1128.47 162.703 1128.47 156.165 1132.08 156.165 1132.08 109.509 1100.5 109.509ZM966.773 102.675 1001.39 102.675 1001.39 109.212 973.697 109.212 973.697 144.278 970.65 162.703 964.28 161.811 966.773 146.359ZM924.672 102.08 930.489 110.698 926.888 116.344 921.072 107.726ZM904.73 101.486 911.654 101.486 911.654 118.721 930.212 118.721 930.212 124.962 911.654 124.962 911.654 129.42 930.766 156.759 927.165 162.703 908.054 135.363 889.496 162.703 886.172 156.759 904.73 129.42 904.73 124.962 886.172 124.962 886.172 118.721 904.73 118.721ZM951.262 101.189 958.187 101.189 958.187 108.321 962.618 108.321 962.618 114.858 958.187 114.858 958.187 128.528 964.003 134.175 962.618 141.307 958.187 137.146 958.187 162.703 951.262 162.703 951.262 114.561 940.183 114.561 940.183 108.321 951.262 108.321ZM877.032 101.189 882.849 105.349 875.463 129.123 879.248 129.123 879.248 162.703 872.324 162.703 872.324 130.549 869 128.231ZM1041.5 100.297 1044 107.726 1066.43 107.726 1066.43 111.887 1024.43 149.885 1028.76 155.868 1067.82 155.868 1067.82 162.703 1026.27 162.703 1019.35 154.48 1009.93 163 1007.71 156.165 1053.97 114.264 1010.76 114.264 1010.76 107.726 1036.52 107.726 1034.3 101.783ZM1086.65 100 1097.45 109.509 1091.91 113.967 1081.11 104.16Z" fill="#63B3FF" fill-rule="evenodd"/></g></svg>