<?xml version="1.0" standalone="no"?>
<!DOCTYPE svg PUBLIC "-//W3C//DTD SVG 20010904//EN"
 "http://www.w3.org/TR/2001/REC-SVG-20010904/DTD/svg10.dtd">
<svg version="1.0" xmlns="http://www.w3.org/2000/svg"
 width="1075.198984pt" height="182.133595pt" viewBox="0 0 1075.198984 182.133595"
 preserveAspectRatio="xMidYMid meet">
<metadata>
Created by potrace 1.12, written by Peter Selinger 2001-2015
</metadata>
<g transform="translate(-100.257372,209.448007) scale(0.100000,-0.100000)"
fill="#000000" stroke="none">
<path d="M5230 2091 c-33 -9 -39 -38 -8 -43 22 -3 23 -7 20 -73 -3 -87 -50
-233 -81 -254 -20 -13 -19 -9 9 53 30 68 35 86 46 162 6 37 4 43 -24 63 -46
32 -108 51 -171 51 -62 0 -88 -14 -70 -37 7 -7 17 -13 24 -13 7 0 15 -7 19
-15 8 -23 -11 -166 -28 -207 -9 -21 -16 -52 -17 -70 0 -18 -4 -41 -8 -52 -9
-22 -172 -99 -185 -86 -15 15 36 281 57 299 7 5 21 10 31 12 11 2 21 9 23 15
6 18 -45 73 -86 93 -44 21 -130 19 -147 -4 -6 -8 -16 -15 -23 -15 -18 0 -32
-45 -52 -175 -22 -143 -24 -263 -5 -308 7 -18 29 -46 48 -63 31 -28 35 -37 36
-83 1 -28 6 -60 12 -71 5 -10 10 -21 10 -23 0 -2 -28 -5 -62 -6 -64 -1 -108
-20 -108 -46 0 -9 10 -15 26 -15 l26 0 -7 -122 c-3 -68 -15 -159 -25 -203 -10
-44 -21 -111 -25 -150 -4 -38 -11 -83 -15 -100 -13 -45 -40 -213 -43 -265 -2
-38 1 -45 17 -45 14 0 24 14 37 54 10 29 23 59 28 65 5 6 12 22 16 36 4 14 23
42 41 64 18 21 43 68 55 105 12 36 30 79 41 96 10 16 18 38 18 48 0 9 5 17 10
17 6 0 10 -10 10 -22 1 -33 49 -98 89 -120 38 -21 32 -22 170 36 l84 35 -8
-47 c-11 -68 -13 -93 -20 -237 -7 -116 -6 -132 10 -145 21 -18 32 -3 41 60 4
25 13 60 20 79 8 18 14 39 14 47 0 7 14 35 31 62 17 27 39 83 50 125 39 152
69 191 196 255 33 17 83 54 109 82 27 27 53 50 58 50 5 0 18 8 29 18 10 9 44
31 75 47 31 17 58 36 60 42 7 22 -27 26 -76 10 -121 -40 -252 -88 -278 -102
-48 -25 -57 -20 -49 23 5 30 23 56 78 114 40 41 87 83 105 94 34 20 42 41 17
51 -9 3 -51 -6 -93 -21 -43 -14 -85 -26 -94 -26 -9 0 -43 13 -77 29 l-60 28
42 19 c23 10 62 39 87 64 49 50 51 51 139 98 87 46 79 72 -15 54 -59 -12 -191
-50 -221 -65 -13 -6 -25 -8 -28 -5 -6 6 28 50 59 77 11 9 49 45 86 81 69 68
89 83 207 150 85 49 99 63 79 79 -10 9 -32 3 -96 -24 -45 -19 -83 -35 -85 -35
-2 0 8 32 21 71 23 67 23 74 9 96 -36 55 -167 101 -235 84z m-102 -573 c-2
-18 -18 -27 -78 -48 -41 -15 -84 -30 -95 -34 -21 -9 65 49 125 83 45 26 52 26
48 -1z m-28 -277 c0 -17 -4 -32 -8 -35 -5 -3 -42 -12 -83 -20 -145 -31 -158
-15 -36 44 102 49 127 51 127 11z m-262 -78 c-5 -19 14 -99 33 -136 23 -46 64
-87 86 -87 8 0 24 5 36 12 27 14 87 28 87 19 -1 -22 -33 -39 -152 -77 -73 -24
-142 -44 -153 -44 -28 1 -58 45 -47 67 5 10 17 67 28 127 15 89 22 110 39 117
26 10 46 11 43 2z"/>
<path d="M11090 2023 c-46 -8 -135 -74 -158 -116 -20 -37 -21 -42 -7 -64 18
-27 28 -29 45 -8 7 8 16 13 20 10 12 -7 76 -126 85 -155 4 -14 38 -91 76 -172
38 -81 86 -198 108 -260 21 -62 73 -182 115 -265 42 -84 76 -162 76 -172 0
-11 5 -23 10 -26 6 -3 50 -86 100 -183 121 -239 148 -284 167 -280 38 7 37 32
-6 148 -23 62 -43 122 -45 134 -1 12 -7 39 -13 61 -6 22 -11 65 -11 95 0 80
-7 119 -43 228 -17 53 -35 120 -39 147 -10 60 -53 218 -81 295 -11 30 -26 82
-34 115 -7 33 -24 92 -38 130 -13 39 -39 110 -56 159 -42 119 -70 168 -93 163
-9 -3 -22 1 -29 9 -11 14 -90 17 -149 7z"/>
<path d="M1673 1830 c-28 -12 -30 -40 -3 -47 16 -4 20 -14 20 -52 l0 -47 -102
-32 c-57 -18 -137 -40 -178 -48 -41 -9 -102 -23 -135 -30 -57 -13 -61 -12 -75
7 -23 30 -51 4 -60 -57 -7 -42 -5 -55 16 -91 13 -23 38 -48 54 -57 32 -16 28
-16 173 25 42 12 49 11 63 -3 16 -15 15 -19 -2 -47 -52 -83 -102 -151 -144
-196 -25 -27 -64 -76 -85 -107 -22 -32 -47 -60 -55 -63 -8 -3 -20 -14 -25 -24
-6 -11 -38 -54 -73 -96 -35 -43 -61 -82 -59 -88 7 -22 27 -17 64 15 45 39 61
49 133 83 30 14 71 41 90 59 19 18 43 38 53 43 36 19 192 170 239 233 41 54
49 70 44 94 -9 41 -52 94 -92 114 l-35 16 27 14 c32 17 136 53 140 49 5 -4
-13 -206 -27 -314 -8 -66 -16 -93 -25 -93 -8 0 -32 -7 -54 -16 -51 -21 -75
-66 -66 -125 11 -71 88 -148 115 -115 7 8 11 18 10 22 -4 25 5 34 42 44 23 6
43 9 45 7 6 -6 -7 -36 -41 -89 -33 -52 -41 -56 -218 -119 -165 -58 -185 -62
-193 -37 -7 24 -25 19 -42 -13 -33 -62 24 -180 93 -193 36 -7 93 13 241 85
l60 29 43 -40 42 -40 -46 -20 c-26 -11 -60 -20 -75 -20 -32 0 -48 -16 -32 -32
9 -9 81 -11 137 -4 40 4 135 50 140 67 8 23 -18 75 -57 115 l-29 31 68 46 c37
24 100 61 138 80 39 19 86 49 104 66 48 44 106 82 184 118 37 18 67 37 67 43
0 29 -24 23 -300 -71 -19 -6 -48 -18 -63 -26 -16 -8 -31 -12 -34 -9 -3 3 0 25
6 50 15 63 15 67 -19 118 -35 52 -68 68 -141 68 -46 0 -62 11 -39 25 6 3 10
13 10 21 0 9 13 34 29 58 16 23 37 69 46 102 18 61 35 91 35 61 0 -26 31 -110
51 -139 16 -22 25 -26 56 -22 21 3 56 16 79 29 50 29 144 115 144 131 0 6 19
30 42 53 30 31 38 45 30 53 -11 11 -37 4 -227 -57 -22 -7 -58 -16 -80 -19 -35
-5 -42 -2 -61 21 -18 22 -20 33 -12 62 19 79 32 111 43 111 20 0 107 50 143
81 18 16 40 29 49 29 9 0 24 6 32 14 9 7 49 25 89 40 71 27 86 41 58 52 -16 6
-134 -18 -231 -46 -33 -10 -77 -21 -97 -24 -35 -6 -38 -5 -38 16 0 38 -61 72
-134 75 -33 2 -71 -2 -83 -7z"/>
<path d="M9814 1686 c-48 -22 -66 -45 -57 -73 3 -7 13 -13 24 -13 15 0 18 -5
15 -22 -3 -13 -13 -58 -22 -100 -12 -59 -26 -91 -56 -134 -32 -44 -39 -60 -31
-73 6 -9 20 -16 31 -15 18 0 20 -8 25 -95 6 -125 32 -195 93 -251 68 -62 98
-72 194 -61 103 11 145 36 250 148 93 100 138 183 171 314 27 104 22 178 -17
272 -32 77 -59 100 -142 117 -61 14 -130 2 -208 -34 -49 -23 -52 -23 -70 -7
-18 17 -113 52 -138 50 -6 0 -34 -11 -62 -23z m390 -160 c48 -20 61 -64 40
-135 -15 -51 -33 -76 -141 -191 l-43 -45 0 62 c0 43 10 93 30 155 19 60 26 96
20 102 -11 11 -13 49 -3 59 11 12 62 8 97 -7z"/>
<path d="M7155 1651 c-46 -11 -101 -51 -121 -88 -16 -31 -16 -35 -1 -50 13
-13 19 -14 31 -4 19 16 34 -6 80 -115 19 -44 51 -117 73 -164 22 -47 48 -110
58 -140 9 -30 45 -116 80 -190 34 -74 68 -146 74 -160 26 -61 174 -336 188
-353 15 -16 18 -16 32 -3 13 14 12 23 -13 82 -33 81 -45 132 -56 244 -5 47
-23 130 -39 185 -16 55 -37 134 -47 175 -9 41 -26 100 -36 130 -11 30 -23 73
-28 95 -4 22 -17 65 -28 95 -11 30 -31 87 -45 126 -35 100 -43 112 -84 129
-38 16 -69 17 -118 6z"/>
<path d="M3200 1615 c-5 -6 -7 -15 -4 -18 4 -3 1 -105 -6 -226 -6 -122 -13
-307 -15 -412 -3 -106 -6 -193 -8 -195 -1 -2 -85 -24 -185 -50 -177 -45 -184
-46 -198 -28 -14 18 -15 18 -34 -5 -29 -34 -27 -95 5 -137 41 -54 79 -54 241
1 76 25 143 49 148 54 6 4 31 13 56 20 25 7 93 32 151 56 59 24 126 49 149 55
39 11 108 42 185 84 17 9 37 16 45 16 9 0 20 4 25 9 6 5 43 16 83 26 46 11 72
22 72 31 0 12 -11 18 -31 16 -85 -9 -121 -14 -209 -31 -217 -42 -347 -71 -395
-85 -27 -9 -51 -16 -52 -16 -2 0 -3 10 -3 22 0 27 16 79 42 135 10 23 25 76
32 118 7 41 16 78 18 81 3 3 16 -15 28 -40 23 -49 72 -96 98 -96 19 0 63 26
104 62 33 28 108 128 108 144 0 6 14 30 31 54 42 58 27 72 -38 35 -26 -16 -73
-42 -103 -58 -30 -17 -62 -35 -70 -42 -8 -7 -36 -19 -62 -28 -46 -15 -48 -15
-58 4 -6 11 -15 17 -19 14 -5 -2 -5 14 0 38 59 311 56 335 -55 378 -50 20 -68
23 -76 14z"/>
<path d="M10594 1599 c-18 -20 -18 -21 1 -35 10 -8 24 -14 31 -14 23 0 23 -32
0 -88 -13 -31 -27 -68 -31 -82 -4 -14 -25 -45 -45 -70 -21 -25 -47 -65 -59
-90 -12 -25 -32 -61 -46 -80 -67 -96 -81 -118 -98 -153 -16 -30 -17 -40 -7
-52 19 -23 43 -18 75 15 16 17 36 30 46 30 9 0 22 7 29 15 7 8 20 15 29 15 37
0 109 32 136 60 16 17 35 30 43 30 20 0 202 174 202 192 0 5 11 26 24 47 26
40 28 63 8 83 -7 7 -12 17 -12 24 0 20 -143 122 -208 149 -75 30 -93 31 -118
4z"/>
<path d="M6183 1391 c-36 -23 -42 -45 -17 -59 16 -9 16 -15 1 -80 -10 -44 -28
-87 -47 -113 -23 -32 -27 -45 -19 -55 6 -8 17 -14 23 -14 6 0 12 -23 13 -57 6
-121 57 -212 135 -242 35 -13 123 -3 168 19 40 21 131 110 170 168 39 59 75
176 75 247 -1 84 -41 170 -89 190 -49 21 -116 19 -180 -6 -51 -19 -57 -19 -79
-4 -41 27 -117 30 -154 6z m296 -112 c71 -25 61 -105 -25 -202 -31 -34 -60
-63 -65 -65 -16 -6 -9 88 11 146 12 34 18 68 14 84 -10 48 7 57 65 37z"/>
<path d="M6779 1334 c-11 -14 -11 -18 6 -30 10 -8 23 -14 28 -14 21 0 -24
-122 -62 -170 -15 -19 -36 -51 -46 -70 -10 -19 -26 -46 -35 -60 -27 -39 -53
-80 -73 -113 -17 -27 -17 -31 -2 -46 11 -11 19 -13 29 -6 54 41 96 63 129 69
20 4 53 20 71 36 19 17 37 30 41 30 17 0 121 106 147 149 39 65 36 87 -17 138
-77 74 -189 119 -216 87z"/>
<path d="M8873 1183 c-24 -5 -73 -46 -73 -63 0 -5 9 -10 20 -10 16 0 31 -22
69 -104 27 -57 54 -121 61 -143 22 -68 201 -424 216 -430 25 -9 26 2 5 56 -11
28 -27 92 -35 143 -9 51 -29 143 -46 203 -17 61 -35 126 -40 145 -19 74 -62
176 -82 193 -19 16 -47 19 -95 10z"/>
<path d="M8298 1034 c-20 -6 -25 -24 -7 -24 16 0 3 -65 -23 -115 -13 -25 -16
-41 -9 -43 6 -2 11 -15 11 -28 0 -51 23 -115 48 -134 34 -27 113 -27 157 0 97
60 155 223 110 310 -18 35 -49 45 -113 36 -52 -8 -60 -8 -117 -2 -22 3 -48 2
-57 0z m176 -60 c47 -18 36 -83 -24 -139 l-32 -30 6 40 c3 22 9 61 12 88 7 48
10 52 38 41z"/>
<path d="M8660 991 c0 -5 6 -11 13 -14 14 -4 -4 -64 -33 -107 -39 -57 -100
-157 -100 -163 0 -13 37 -7 50 7 6 8 28 20 48 27 61 20 134 80 168 138 18 30
18 31 -7 57 -42 45 -139 84 -139 55z"/>
</g>
</svg>
