<!-- Generator: Adobe Illustrator 22.1.0, SVG Export Plug-In  -->
<svg version="1.1"
	 xmlns="http://www.w3.org/2000/svg" xmlns:xlink="http://www.w3.org/1999/xlink" xmlns:a="http://ns.adobe.com/AdobeSVGViewerExtensions/3.0/"
	 x="0px" y="0px" width="345px" height="214px" viewBox="0 0 345 214" style="enable-background:new 0 0 345 214;"
	 xml:space="preserve">
<style type="text/css">
	.st0{fill:#525252;}
</style>
<defs>
</defs>
<g>
	<path class="st0" d="M169.5,114l-42,6c-0.6,0.1-1-0.4-0.9-1l15.5-57.5c0.2-0.6-0.3-1.1-0.9-1c-3,0.5-10.4,1.7-12.5,1.9
		c-0.3,0-0.6,0.2-0.7,0.5l-20.6,59.5c-0.1,0.3-0.3,0.5-0.6,0.5l-44.8,6.5c-0.5,0.1-1-0.4-0.9-0.9L77.4,43c0-0.2,0.2-0.4,0.4-0.6
		l26.8-14.2c0.3-0.1,0.4-0.4,0.4-0.7V0.8c0-0.6-0.7-1-1.2-0.7L0.4,67.8C0.1,67.9,0,68.2,0,68.4v13.9c0,0.6,0.6,1,1.2,0.7l54.9-29.1
		c0.6-0.3,1.3,0.2,1.2,0.9L12,243.4c-0.1,0.6,0.4,1.1,0.9,1l26.7-5.2c0.3-0.1,0.6-0.3,0.6-0.6l16.5-87c0.1-0.3,0.3-0.6,0.6-0.6
		l42.2-9.3c0.6-0.1,1.1,0.5,0.9,1l-13.2,38.1c-0.2,0.5,0.2,1,0.7,1.1l20.6,1.7c0.4,0,0.7-0.2,0.8-0.6l12.3-45.8
		c0.1-0.3,0.3-0.5,0.6-0.6l47.4-10.5c0.4-0.1,0.6-0.4,0.6-0.8v-10.6C170.5,114.3,170,113.9,169.5,114z"/>
	<path class="st0" d="M179.6,93.8l-15.5-6.9c-0.4-0.2-0.8,0-1,0.3l-5.8,9.9c-0.3,0.4-0.1,1,0.4,1.2l17.5,6.6c0.4,0.2,0.9-0.1,1-0.5
		l3.8-9.6C180.2,94.5,180,94,179.6,93.8z"/>
	<path class="st0" d="M123.9,155.8L224.7,197c0.4,0.2,0.9,0,1.1-0.5l8.9-25.5c0.2-0.4-0.1-0.9-0.6-1l-106.7-26.7
		c-0.4-0.1-0.9,0.1-1,0.6l-2.9,11C123.4,155.2,123.6,155.6,123.9,155.8z"/>
	<path class="st0" d="M248.7,157.5l1.6-22.5c0-0.5,0.5-0.8,0.9-0.7l16.1,2.3c0.4,0.1,0.8-0.2,0.9-0.6l3-10c0.1-0.5-0.2-1-0.7-1
		l-18.6-2.3c-0.4-0.1-0.7-0.4-0.7-0.9l1.1-15.1c0-0.3,0.2-0.6,0.6-0.7l19.7-6.2c0.3-0.1,0.6-0.4,0.6-0.8V88c0-0.5-0.4-0.9-0.9-0.8
		l-17.7,3c-0.5,0.1-1-0.3-0.9-0.8l3.7-51.7c0-0.5-0.3-0.9-0.8-0.9h-9.4c-0.4,0-0.8,0.3-0.8,0.7l-5.5,54.4c0,0.4-0.3,0.7-0.7,0.7
		l-36.9,6.2v0.8v21.1c0,0.5,0.5,0.9,1,0.8l33.5-10.6c0.5-0.2,1.1,0.3,1,0.8l-4.6,45.7c0,0.5,0.3,0.9,0.8,0.9h13
		C248.3,158.2,248.7,157.9,248.7,157.5z"/>
	<path class="st0" d="M223.6,122.5l-20.1,20.4c-0.4,0.4-0.3,0.9,0.1,1.2l13.9,9.4c0.4,0.3,1,0.1,1.2-0.3l11.8-24.9
		c0.2-0.3,0.1-0.7-0.2-0.9l-5.6-4.9C224.4,122.1,223.9,122.2,223.6,122.5z"/>
	<path class="st0" d="M380.2,121.2l-53.2,0.8c-0.4,0-0.8-0.4-0.8-0.8V97c0-0.4-0.4-0.8-0.8-0.8h-7c-0.4,0-0.7,0.3-0.8,0.7l-4.6,24.7
		c-0.1,0.4-0.4,0.6-0.8,0.7l-12.9,0.2c-0.5,0-0.9-0.4-0.8-0.9l11.7-66c0.1-0.3,0.3-0.6,0.7-0.7l52.4-8.7c0.4-0.1,0.7-0.4,0.7-0.8V35
		c0-0.5-0.4-0.8-0.8-0.8l-83,2c-0.4,0-0.7,0.3-0.8,0.6l-4.8,22.8c-0.1,0.6,0.4,1,0.9,1l16.6-2.8c0.6-0.1,1.1,0.4,0.9,1l-48,188.6
		c-0.1,0.6,0.3,1.1,0.9,1l30.4-4.1c0.3,0,0.6-0.3,0.7-0.7l17.5-99c0.1-0.3,0.3-0.6,0.7-0.7l13.1-2.2c0.5-0.1,1,0.4,0.9,0.9
		l-4.9,26.3c-0.1,0.3,0.1,0.6,0.3,0.8l20.5,14c0.5,0.4,1.3,0,1.3-0.7v-43.7c0-0.4,0.3-0.7,0.7-0.8l38.7-6.4c0.4-0.1,0.7,0.1,0.9,0.5
		l1.5,3.5c0.1,0.3,0.1,0.6-0.1,0.8L350.3,158c-0.3,0.4-0.9,0.4-1.2,0l-4.2-4.7c-0.4-0.5-1.2-0.3-1.4,0.4l-2.5,11.4
		c-0.1,0.3,0.1,0.7,0.4,0.8l16,10.3c0.4,0.2,0.8,0.1,1.1-0.2l28.6-41c0.2-0.2,0.2-0.6,0.1-0.8l-6.2-12.6
		C380.8,121.4,380.5,121.2,380.2,121.2z"/>
</g>
</svg>
